<svg xmlns="http://www.w3.org/2000/svg" viewBox="0 0 205.17 45.03"><defs><style>.cls-1{fill:#c04d00;}.cls-2{fill:#fff;}.cls-3{fill:#ff6c0e;}</style></defs><title>checkroom invertido</title><g id="Capa_2" data-name="Capa 2"><g id="Layer_1" data-name="Layer 1"><polygon class="cls-1" points="15.76 45.03 0 40.53 0 37.39 15.76 37.43 15.76 45.03"/><path class="cls-2" d="M0,6V40.53l33.77-6V0Z"/><path class="cls-2" d="M53.56,20.29c0-5.39,3.77-8.5,8-8.5a6.89,6.89,0,0,1,4.73,1.84L64.58,16a4.09,4.09,0,0,0-2.79-1.23c-2.67,0-4.54,2.23-4.54,5.56s1.82,5.54,4.43,5.54a5.43,5.43,0,0,0,3.44-1.44l1.47,2.37a8,8,0,0,1-5.27,2C56.92,28.76,53.56,25.65,53.56,20.29Z"/><path class="cls-2" d="M69.35,5h3.58v6.12l-.14,3.16A7.49,7.49,0,0,1,78,11.79c3.46,0,5,2.32,5,6.41V28.37H79.39V18.66c0-2.73-.79-3.79-2.62-3.79-1.47,0-2.45.73-3.84,2.11V28.37H69.35Z"/><path class="cls-2" d="M86.14,20.29c0-5.26,3.63-8.5,7.42-8.5,4.33,0,6.64,3.13,6.64,7.67a9.86,9.86,0,0,1-.16,1.78H89.65c.29,3,2.18,4.74,4.89,4.74a6.89,6.89,0,0,0,3.8-1.2L99.58,27a10,10,0,0,1-5.51,1.73C89.63,28.76,86.14,25.62,86.14,20.29Zm11-1.51c0-2.64-1.18-4.2-3.45-4.2-2,0-3.7,1.49-4,4.2Z"/><path class="cls-2" d="M102.83,20.29c0-5.39,3.77-8.5,8-8.5a6.89,6.89,0,0,1,4.73,1.84L113.85,16a4.11,4.11,0,0,0-2.79-1.23c-2.67,0-4.55,2.23-4.55,5.56s1.83,5.54,4.44,5.54a5.43,5.43,0,0,0,3.44-1.44l1.47,2.37a8,8,0,0,1-5.28,2C106.19,28.76,102.83,25.65,102.83,20.29Z"/><path class="cls-2" d="M118.62,5h3.51V19.85h.1l6.18-7.66h3.93l-5.53,6.57,6.12,9.61H129l-4.27-7.17-2.63,3v4.14h-3.51Z"/><path class="cls-2" d="M135.41,12.19h2.94l.28,2.9h.1c1.15-2.1,2.85-3.3,4.6-3.3a4.15,4.15,0,0,1,1.81.33l-.63,3.12a5.27,5.27,0,0,0-1.64-.26c-1.31,0-2.88.9-3.87,3.42v10h-3.59Z"/><path class="cls-2" d="M145.79,20.29c0-5.39,3.64-8.5,7.66-8.5s7.65,3.11,7.65,8.5-3.63,8.47-7.65,8.47S145.79,25.65,145.79,20.29Zm11.63,0c0-3.33-1.52-5.56-4-5.56s-4,2.23-4,5.56,1.52,5.54,4,5.54S157.42,23.63,157.42,20.29Z"/><path class="cls-2" d="M163.62,20.29c0-5.39,3.64-8.5,7.66-8.5s7.65,3.11,7.65,8.5-3.64,8.47-7.65,8.47S163.62,25.65,163.62,20.29Zm11.62,0c0-3.33-1.51-5.56-4-5.56s-4,2.23-4,5.56,1.51,5.54,4,5.54S175.24,23.63,175.24,20.29Z"/><path class="cls-2" d="M182.2,12.19h2.94l.27,2.23h.11c1.38-1.45,3-2.63,5-2.63A4.33,4.33,0,0,1,195,14.73c1.58-1.68,3.2-2.94,5.23-2.94,3.4,0,5,2.32,5,6.41V28.37h-3.58V18.66c0-2.73-.82-3.79-2.6-3.79-1.07,0-2.21.69-3.51,2.11V28.37h-3.59V18.66c0-2.73-.82-3.79-2.59-3.79-1,0-2.22.69-3.52,2.11V28.37H182.2Z"/><ellipse class="cls-3" cx="16.89" cy="15.68" rx="3.26" ry="2.73" transform="translate(-6.16 15.52) rotate(-42.48)"/><path class="cls-3" d="M16.89,7.85c-5.24.89-9.5,5.75-9.5,10.83a7.72,7.72,0,0,0,2.08,5.39l1.09,1.29,2.1-1.84-1.1-1.3-.05,0A5.56,5.56,0,0,1,10,18.23a8.43,8.43,0,0,1,6.9-7.87c3.8-.65,6.89,1.83,6.89,5.52a7.57,7.57,0,0,1-1.42,4.31l-5.47,8.32-1.83-2.16L13,28.19l3.93,4.63,7.54-11.47a10.34,10.34,0,0,0,1.95-5.92C26.38,10.36,22.12,7,16.89,7.85Z"/></g></g></svg>