<svg xmlns="http://www.w3.org/2000/svg" viewBox="0 0 33.77 45.03"><defs><style>.cls-1{fill:#c04d00;}.cls-2{fill:#ff6c0e;}.cls-3{fill:#fff;}</style></defs><title>iso checkroom</title><g id="Capa_2" data-name="Capa 2"><g id="Layer_1" data-name="Layer 1"><polygon class="cls-1" points="15.76 45.03 0 40.53 0 37.39 15.76 37.43 15.76 45.03"/><path class="cls-2" d="M0,6V40.53l33.77-6V0Z"/><ellipse class="cls-3" cx="16.89" cy="15.68" rx="3.26" ry="2.73" transform="translate(-6.16 15.52) rotate(-42.48)"/><path class="cls-3" d="M16.89,7.85c-5.24.89-9.5,5.75-9.5,10.83a7.72,7.72,0,0,0,2.08,5.39l1.09,1.29,2.1-1.84-1.1-1.3-.05,0A5.56,5.56,0,0,1,10,18.23a8.43,8.43,0,0,1,6.9-7.87c3.8-.65,6.89,1.83,6.89,5.52a7.57,7.57,0,0,1-1.42,4.31l-5.47,8.32-1.83-2.16L13,28.19l3.93,4.63,7.54-11.47a10.34,10.34,0,0,0,1.95-5.92C26.38,10.36,22.12,7,16.89,7.85Z"/></g></g></svg>